<svg version="1.2" xmlns="http://www.w3.org/2000/svg" viewBox="0 0 288 288" width="80" height="80">
	<title>js (1)-svg</title>
	<style>
		.s0 { fill: #a277ff } 
	</style>
	<g id="SvgjsG1018">
		<g id="Layer">
			<path id="Layer" fill-rule="evenodd" class="s0" d="m0 0h288v288h-288zm220.2 241.4c-13.4 0-20.9-6.9-26.7-16.4l-22 12.8c7.9 15.7 24.1 27.7 49.3 27.7c25.7 0 44.8-13.4 44.8-37.8c0-22.6-13-32.6-35.9-42.5l-6.8-2.9c-11.6-5-16.7-8.3-16.7-16.4c0-6.6 5.1-11.6 13-11.6c7.8 0 12.8 3.3 17.4 11.6l21.1-13.5c-8.9-15.7-21.3-21.7-38.5-21.7c-24.2 0-39.6 15.4-39.6 35.8c0 22 12.9 32.4 32.5 40.7l6.7 2.9c12.4 5.4 19.7 8.7 19.7 18c0 7.7-7.1 13.3-18.3 13.3zm-104.9-0.1q0 0 0 0q0 0 0 0zm-17.4-14l-22.1 13.4c6.4 13.5 19 24.7 40.6 24.7c24 0 40.5-12.8 40.5-40.8v-92.4h-27.1v92.1c0 13.5-5.6 17-14.5 17c-9.3 0-13.2-6.4-17.4-14zm17.4 14q0 0 0 0z" />
		</g>
	</g>
</svg>