<svg version="1.2" xmlns="http://www.w3.org/2000/svg" viewBox="0 0 288 288" width="80" height="80">
	<title>react (1)-svg</title>
	<style>
		.s0 { fill: #a277ff } 
	</style>
	<g id="SvgjsG1023">
		<g id="Layer">
			<path id="Layer" fill-rule="evenodd" class="s0" d="m227.8 197.5c8.5 41.4 4.8 74.3-11.7 84.9c-4 2.5-8.6 3.7-13.3 3.6c-16.1 0-37.2-12.6-58.6-34.7c-21.4 22.2-42.5 35-58.6 35c-5 0-9.4-1.2-13.2-3.6c-16.6-10.6-20.3-43.6-11.9-85.1c-36.6-12.5-60.5-32.5-60.5-53.7c0-21.2 23.8-41.2 60.3-53.7c-8.5-41.4-4.8-74.3 11.7-84.9c3.8-2.5 8.3-3.6 13.2-3.6v-0.1c16.2 0 37.3 12.7 58.7 34.7c21.3-22.2 42.4-35 58.6-35v0.1c4.6-0.1 9.1 1.2 13.1 3.6c16.5 10.6 20.3 43.6 11.8 85.1c36.7 12.5 60.5 32.6 60.5 53.8c0 21.1-23.7 41.2-60.1 53.6zm-25.4-196.1v14.5q0.1 0 0.1 0v-14.5q0 0-0.1 0zm0 14.5c-12.2 0-30.1 10.8-49.2 30.6c8.8 10.2 16.9 21.1 24.4 32.6c12.6 1.4 25 3.8 37.3 7.1c1.3-6.6 2.3-13.1 3-19.2c2.7-24.9-0.8-44.3-8.8-49.4c-1.8-1.1-4-1.7-6.7-1.7zm-117.2 0.3v0.1c-2.7 0-5 0.5-6.7 1.7c-8 5.1-11.4 24.5-8.6 49.4c0.7 6.1 1.7 12.4 3.1 18.9c12.2-3.3 24.7-5.7 37.3-7.2c7.8-12 16-22.9 24.2-32.5c-19.1-19.6-37.1-30.4-49.3-30.4zm126.3 84.2c-7.7-2.1-15.7-3.8-24-5.2q8.7 15 16.1 31q4.5-12.7 7.9-25.8zm-14.7 43.4c-3.7-8.7-7.8-17.4-12.2-25.9c-4.6-8.8-9.4-17-14.2-24.8c-17.6-1.7-35.3-1.7-53 0.1c-10 16.1-18.8 33.1-26.3 50.9c7.5 17.7 16.4 34.7 26.5 50.8c17.6 1.6 35.3 1.6 52.9-0.1c4.9-7.8 9.6-16.1 14.1-24.9q6.6-12.8 12.2-26.1zm-9.3 48.8c8.4-1.4 16.5-3.2 24.2-5.3c-2.2-8.4-4.9-17.2-8.1-25.9q-7.4 16-16.1 31.2zm-27.3 17.5c-5.3 0.3-10.8 0.5-16.3 0.5c-5.5 0-10.9-0.2-16.1-0.5c5.4 7.6 10.8 14.6 16.3 20.9c5.4-6.3 10.8-13.3 16.1-20.9zm-68.2-32.8c-2.8-5.2-5.3-10.4-7.7-15.6c-3.1 8.6-5.8 17.3-8 25.7q12 3.2 24.1 5.2q-4.3-7.5-8.4-15.3zm35.6-99.6c5.4-0.3 10.8-0.5 16.4-0.5c5.4 0 10.8 0.2 16.1 0.5c-5.4-7.6-10.9-14.6-16.3-20.9c-5.4 6.3-10.9 13.3-16.2 20.9zm-51.4 22.7q3.4 13.2 8.1 26q7.3-16 16-31.1c-8.3 1.3-16.4 3.1-24.1 5.1zm-12.5 83.2c3.5-13.5 7.8-26.7 13-39.6c-5.5-13.6-9.9-26.9-13.2-39.7c-5.7 2-11.2 4.2-16.3 6.6c-20.7 9.8-34.2 22.8-34.2 33c0 10.2 13.5 23.2 34.2 33q8.1 3.8 16.5 6.7zm15.1 86.5c2.1 1.2 4.3 1.8 6.6 1.8c12.2 0 30.2-10.8 49.3-30.6c-8.7-10.3-16.9-21.2-24.4-32.6c-13.2-1.6-25.7-4-37.2-7.1c-1.3 6.5-2.4 13-3 19.1c-2.7 25 0.7 44.3 8.7 49.4zm136.2-68.7c-12.3 3.4-24.8 5.8-37.4 7.2c-7.8 12.1-16 23-24.2 32.5c19.1 19.7 37.2 30.4 49.3 30.4c2.7 0 5-0.5 6.8-1.7c7.9-5.1 11.3-24.5 8.5-49.4c-0.6-6.1-1.7-12.4-3-19zm59.9-57.5c0-10.2-13.4-23.2-34.2-33q-7.8-3.6-16.5-6.7c-3.3 12.8-7.6 26-13 39.6c5.2 12.9 9.6 26.1 13.2 39.7c5.7-2 11.2-4.2 16.2-6.6c20.8-9.8 34.2-22.8 34.3-33z" />
			<path id="Layer" class="s0" d="m124.9 164.9c-5-5.6-7.8-13.1-7.8-21c0-8 2.8-15.5 7.8-21.1c5.1-5.6 11.9-8.8 19-8.8c7.1 0 13.9 3.2 19 8.8c5 5.6 7.8 13.1 7.8 21.1c0 7.9-2.8 15.4-7.8 21c-5.1 5.6-11.9 8.8-19 8.8c-7.1 0-13.9-3.2-19-8.8z" />
		</g>
	</g>
</svg>